<?xml version="1.0" standalone="no"?>
<!DOCTYPE svg PUBLIC "-//W3C//DTD SVG 20010904//EN"
 "http://www.w3.org/TR/2001/REC-SVG-20010904/DTD/svg10.dtd">
<svg version="1.0" xmlns="http://www.w3.org/2000/svg"
 width="512.000000pt" height="512.000000pt" viewBox="0 0 512.000000 512.000000"
 preserveAspectRatio="xMidYMid meet">

<g transform="translate(0.000000,512.000000) scale(0.100000,-0.100000)"
fill="#000000" stroke="none">
<path d="M1911 5106 c-49 -27 -50 -34 -51 -444 0 -416 1 -426 55 -450 18 -8
106 -12 285 -12 l260 0 0 -180 0 -180 -260 0 c-283 0 -305 -4 -328 -55 -7 -16
-12 -79 -12 -165 l0 -140 -690 0 c-750 0 -733 1 -758 -55 -9 -19 -12 -147 -12
-470 l0 -445 -166 0 -166 0 -34 -34 -34 -34 0 -426 c0 -457 1 -466 51 -492 37
-19 853 -21 894 -2 48 22 55 52 55 228 l0 160 482 0 483 0 275 -275 276 -275
44 0 45 0 302 303 c274 274 303 305 303 335 0 18 -6 45 -14 60 -8 15 -132 144
-275 287 l-261 260 0 157 0 158 260 0 c280 0 301 3 326 51 21 41 21 777 0 818
-25 48 -46 51 -326 51 l-260 0 0 180 0 180 260 0 c179 0 267 4 285 12 54 24
55 35 55 448 0 413 -1 424 -55 448 -40 18 -1261 16 -1294 -2z m1149 -446 l0
-260 -500 0 -500 0 0 260 0 260 500 0 500 0 0 -260z m0 -1280 l0 -260 -500 0
-500 0 0 260 0 260 500 0 500 0 0 -260z m-1200 -240 c0 -155 9 -187 55 -208
18 -8 106 -12 285 -12 l260 0 0 -157 0 -158 -247 -247 -248 -248 -482 0 -483
0 0 166 0 166 -34 34 -34 34 -166 0 -166 0 0 385 0 385 630 0 630 0 0 -140z
m908 -933 l202 -202 -205 -205 -205 -205 -205 205 -205 205 202 202 c112 112
205 203 208 203 3 0 96 -91 208 -203z m-1968 -197 l0 -300 -300 0 -300 0 0
300 0 300 300 0 300 0 0 -300z"/>
<path d="M3530 2103 c-28 -10 -59 -46 -65 -75 -21 -94 97 -157 166 -89 73 73
-5 199 -101 164z"/>
<path d="M3980 2103 c-52 -19 -81 -83 -60 -134 23 -55 44 -59 320 -59 l250 0
0 -107 0 -107 -45 -40 c-34 -31 -85 -112 -210 -327 -97 -170 -169 -305 -175
-332 -22 -100 30 -202 130 -252 25 -13 68 -19 167 -23 l134 -5 -3 -96 -3 -96
-711 -3 -712 -2 -7 45 c-43 289 -315 483 -597 424 -187 -39 -348 -200 -387
-387 -35 -166 15 -330 138 -453 199 -199 503 -199 702 0 37 38 76 88 90 118
l24 52 780 1 c576 1 789 4 815 13 59 20 70 56 70 235 l0 152 94 0 c51 0 117 5
147 10 104 20 175 98 186 203 7 70 -1 88 -191 417 -101 175 -161 269 -191 298
l-45 43 0 167 c0 149 -2 170 -20 200 -11 18 -32 37 -46 42 -26 10 -617 13
-644 3z m779 -869 c85 -147 154 -274 155 -283 1 -14 -31 -16 -326 -19 -310 -2
-328 -1 -328 16 0 16 279 509 308 545 8 9 19 14 26 11 6 -2 81 -124 165 -270z
m-2079 -466 c186 -80 232 -328 88 -475 -182 -186 -501 -54 -501 207 0 215 214
354 413 268z"/>
</g>
</svg>
