<?xml version="1.0" encoding="UTF-8"?>
<svg style=" fill: white;" width="700pt" height="700pt" version="1.1" viewBox="0 0 730 590" xmlns="http://www.w3.org/2000/svg">
 <g>
  <path d="m196.56 118.61c-40.18 35.387-62.297 83.059-63.98 137.83-2.0312 66.43 26.602 135.84 76.578 185.68 40.355 40.18 92.016 61.738 145.91 61.738 12.879 0 25.863-1.2266 38.852-3.7109 69.266-13.266 127.82-61.039 156.73-127.82 35.422-81.863 13.754-186.09-53.969-259.42-78.82-85.359-218.82-65.938-300.12 5.707zm321.93 239.79c-24.254 56.141-73.324 96.25-131.18 107.34-55.859 10.676-111.82-6.9297-153.48-48.477-42.594-42.414-68.004-103.66-66.254-159.73 1.3984-44.871 19.391-83.859 52.113-112.7 68.914-60.727 186.34-78.539 251.27-8.2617 58.453 63.352 77.562 152.5 47.531 221.83z"/>
  <path d="m352.27 229.67c-8.8555 0.73438-17.781 7.1406-18.164 16.801l-5.25 133.42c-0.38672 9.6602 7.1406 17.816 16.801 18.199h0.69922c9.3438 0 17.113-7.3867 17.465-16.801l5.25-133.42c0.38672-9.6602-7.1406-17.816-16.801-18.199z"/>
  <path d="m350 212.2c9.6602 0 17.5-7.8398 17.5-17.5v-16.062c0-9.6602-7.8398-17.5-17.5-17.5s-17.5 7.8398-17.5 17.5v16.031c0 9.6914 7.8398 17.531 17.5 17.531z"/>
 </g>
</svg>
