<?xml version="1.0" encoding="UTF-8"?>
<svg style=" fill: white;" width="380pt" height="500pt" version="1.1" viewBox="0 0 740 600" xmlns="http://www.w3.org/2000/svg">
 <path d="m350 0c60.449 0 109.71 47.891 111.92 107.8l0.078125 4.1992h56c61.855 0 112 50.145 112 112v224c0 61.855-50.145 112-112 112h-336c-61.855 0-112-50.145-112-112v-224c0-61.855 50.145-112 112-112h56c0-61.855 50.145-112 112-112zm168 149.33h-336c-41.238 0-74.668 33.43-74.668 74.668v224c0 41.238 33.43 74.668 74.668 74.668h336c41.238 0 74.668-33.43 74.668-74.668v-224c0-41.238-33.43-74.668-74.668-74.668zm-280 224c10.309 0 18.668 8.3594 18.668 18.668v37.332c0 10.312-8.3594 18.668-18.668 18.668h-37.332c-10.312 0-18.668-8.3555-18.668-18.668v-37.332c0-10.309 8.3555-18.668 18.668-18.668zm186.67 18.668c10.309 0 18.664 8.3555 18.664 18.668 0 10.309-8.3555 18.664-18.664 18.664h-93.336c-10.309 0-18.664-8.3555-18.664-18.664 0-10.312 8.3555-18.668 18.664-18.668zm-186.67-168c10.309 0 18.668 8.3555 18.668 18.668v37.332c0 10.309-8.3594 18.668-18.668 18.668h-37.332c-10.312 0-18.668-8.3594-18.668-18.668v-37.332c0-10.312 8.3555-18.668 18.668-18.668zm261.33 18.668c10.312 0 18.668 8.3555 18.668 18.664 0 10.312-8.3555 18.668-18.668 18.668h-168c-10.309 0-18.664-8.3555-18.664-18.668 0-10.309 8.3555-18.664 18.664-18.664zm-149.33-205.34c-41.238 0-74.668 33.43-74.668 74.668h149.34l-0.09375-3.7266c-1.9414-39.508-34.586-70.941-74.574-70.941z" fill-rule="evenodd"/>
</svg>
