<?xml version="1.0" encoding="UTF-8"?>
<svg style=" fill: white;" width="650pt" height="700pt" version="1.1" viewBox="0 0 725 590" xmlns="http://www.w3.org/2000/svg">
 <path d="m273.16 203.16-76.836 76.836 76.836 76.836c4.5 4.3477 7.0664 10.324 7.1211 16.582 0.054688 6.2578-2.4062 12.277-6.832 16.703-4.4258 4.4219-10.445 6.8867-16.703 6.832s-12.23-2.6211-16.578-7.125l-93.332-93.332h-0.003906c-4.3789-4.375-6.8359-10.309-6.8359-16.496s2.457-12.121 6.8359-16.496l93.332-93.332h0.003906c5.9258-5.7266 14.43-7.8984 22.379-5.7227 7.9453 2.1797 14.152 8.3867 16.332 16.336 2.1797 7.9453 0.003907 16.453-5.7188 22.379zm153.67 186.67v-0.003906c4.375 4.3789 10.309 6.8398 16.496 6.8398s12.125-2.4609 16.496-6.8398l93.332-93.332h0.003906c4.3789-4.375 6.8359-10.309 6.8359-16.496s-2.457-12.121-6.8359-16.496l-93.332-93.332h-0.003906c-4.3477-4.5039-10.32-7.0703-16.578-7.125s-12.277 2.4102-16.703 6.832c-4.4258 4.4258-6.8867 10.445-6.832 16.703 0.054687 6.2578 2.6211 12.234 7.1211 16.582l76.836 76.836-76.836 76.836c-4.3789 4.375-6.8359 10.309-6.8359 16.496 0 6.1914 2.457 12.125 6.8359 16.496z"/>
</svg>
